<!-- Made in Mondrian.io -->
<svg id="main" width="1000" height="750" version="1.1" xmlns="http://www.w3.org/2000/svg" xmlns:mondrian="http://mondrian.io/xml" viewbox="0 0 1000 750" enable-background="new 0 0 1000 750" style="width: 1000px; height: 750px; -webkit-transform: scale(1);">
<path fill="rgba(126, 129, 132, 1)" stroke="none" d="M202.66419630355657,-0.9999999999999698 C248.1952800336035,26.970596471578393 295.51395827499204,51.89176701204189 342.2017208064965,77.8644637356489 C342.3068734248106,127.28619434332153 342.3068734248106,176.60277233267948 342.2017208064965,226.02450294035347 C295.4088056566777,200.2621114533743 247.35405908708947,176.60277233267948 202.66419630355657,147.4754970596472 L202.66419630355657,-0.9999999999999698z" stroke-width="1" >
</path>
<path fill="rgba(0, 75, 141, 1)" stroke="none" d="M365.44044945393574,232.12335480257713 C365.54560207224813,182.38616633995997 365.54560207224813,132.648977877346 365.44044945393574,82.9117894147296 C509.49953654438525,83.12209465135828 653.5586236348365,83.33239988798739 797.722863343602,82.9117894147296 C797.6177107252862,132.54382525903176 797.6177107252862,182.28101372164733 797.722863343602,232.01820218426258 C653.6637762531486,231.80789694763462 509.49953654438525,231.80789694763462 365.44044945393574,232.12335480257713z" stroke-width="1" >
</path>
<path fill="rgba(126, 129, 132, 1)" stroke="none" d="M202.66419630355657,255.46723606832825 C247.77466956034792,285.01512181461857 296.25002660319194,308.6744609353115 342.3068734248106,336.539904788575 C341.15019462335505,471.66101932231857 342.2017208064965,606.7821338560602 341.78111033323984,741.903248389807 C295.61911089330675,715.5099411929438 248.30043265191804,691.2196863623634 202.66419630355657,664.0903108373006 L202.66419630355657,255.46723606832825z" stroke-width="1" >
</path>
<path fill="rgba(0, 75, 141, 1)" stroke="none" d="M365.2301442173063,342.6387566507975 C509.49953654438525,342.7439092691123 653.6637762531486,342.7439092691123 797.9331685802301,342.6387566507975 C797.5125581069694,392.0604872584706 797.722863343602,441.58737048445784 797.6177107252862,491.0091010921309 C653.5586236348365,490.5884906188749 509.49953654438525,490.5884906188749 365.54560207224813,491.0091010921309 C365.44044945393574,441.4822178661439 365.6507546905611,392.0604872584706 365.2301442173063,342.6387566507975z" stroke-width="1" >
</path>
<path fill="rgba(0, 75, 141, 1)" stroke="none" d="M365.6507546905611,597.94931391767 C509.60468916269974,598.2647717726111 653.5586236348365,598.369924390925 797.5125581069694,597.8441612993558 C797.722863343602,648.6328759451133 798.0383211985412,699.316437972556 796.8816423970859,750 L365.75590730887666,750 C365.44044945393574,699.316437972556 365.44044945393574,648.6328759451133 365.6507546905611,597.94931391767z" stroke-width="1" >
</path>
</svg>
