<?xml version="1.0" encoding="UTF-8" ?>
<!DOCTYPE svg PUBLIC "-//W3C//DTD SVG 1.1//EN" "http://www.w3.org/Graphics/SVG/1.1/DTD/svg11.dtd">
<svg width="276pt" height="72pt" viewBox="0 0 276 72" version="1.1" xmlns="http://www.w3.org/2000/svg">
<path fill="#ffffff" d=" M 0.00 0.00 L 276.00 0.00 L 276.00 72.00 L 270.03 72.00 C 270.51 70.53 270.92 69.04 271.34 67.56 C 270.39 68.83 269.45 70.11 268.52 71.40 C 267.98 71.06 266.90 70.39 266.36 70.05 C 266.54 67.56 266.94 65.08 267.56 62.66 C 268.78 63.70 270.00 64.76 271.22 65.82 C 270.97 64.90 270.46 63.08 270.21 62.17 C 268.68 62.52 266.57 62.09 265.78 63.82 C 264.70 66.41 265.60 69.31 265.77 72.00 L 262.16 72.00 C 262.21 68.92 262.24 65.84 262.28 62.75 C 262.01 62.68 261.47 62.53 261.20 62.46 C 260.84 63.05 260.11 64.22 259.75 64.80 C 258.75 64.60 258.09 63.87 257.76 62.61 C 257.41 62.53 256.72 62.35 256.37 62.27 C 256.28 65.51 256.24 68.77 256.71 71.99 C 257.51 69.61 257.47 67.08 257.35 64.60 C 257.58 65.04 258.03 65.92 258.25 66.36 C 258.75 66.41 259.74 66.52 260.23 66.57 C 260.38 68.38 260.31 70.19 260.15 72.00 L 252.53 72.00 C 252.60 68.40 252.59 64.78 251.98 61.22 C 251.35 64.78 251.37 68.40 251.17 72.00 L 241.84 72.00 C 242.58 70.92 243.30 69.83 244.01 68.73 C 242.20 67.49 240.37 66.29 238.54 65.10 C 238.86 64.62 239.49 63.67 239.81 63.19 C 241.18 63.86 242.55 64.51 243.94 65.15 C 242.75 64.07 241.89 62.27 240.12 62.08 C 238.29 62.38 237.89 64.35 237.15 65.74 C 239.51 67.21 242.74 68.46 241.58 71.96 C 240.08 70.82 238.63 69.64 237.17 68.46 C 237.44 69.64 237.71 70.82 237.98 72.00 L 232.58 72.00 C 232.64 69.30 232.67 66.59 232.70 63.89 C 233.50 63.57 235.12 62.93 235.92 62.60 C 233.35 62.55 230.78 62.55 228.22 62.61 C 229.32 63.06 230.43 63.50 231.54 63.94 C 231.50 66.63 231.48 69.32 231.32 72.00 L 226.40 72.00 C 226.51 68.40 226.56 64.78 225.93 61.22 C 225.41 64.09 225.30 67.01 225.15 69.92 C 224.23 67.42 223.30 64.93 222.34 62.46 C 221.90 62.45 221.01 62.42 220.57 62.41 C 220.55 65.61 220.55 68.81 220.32 72.00 L 217.94 72.00 C 217.15 68.43 216.04 64.92 214.32 61.68 C 213.08 65.06 212.06 68.50 211.19 71.99 C 211.89 71.18 213.31 69.55 214.02 68.73 C 215.19 69.70 216.36 70.63 217.52 71.62 L 215.74 72.00 L 207.48 72.00 C 207.52 69.29 207.54 66.58 207.56 63.88 C 208.37 63.56 209.98 62.93 210.79 62.62 C 208.20 62.54 205.61 62.54 203.02 62.62 C 203.87 62.94 205.56 63.57 206.40 63.89 C 206.37 66.59 206.34 69.30 206.30 72.00 L 203.72 72.00 C 202.10 71.47 200.50 70.89 198.89 70.31 C 198.81 67.39 198.69 64.46 198.30 61.56 C 197.58 64.99 197.68 68.52 198.02 71.99 L 197.19 72.00 L 193.01 72.00 C 194.99 68.86 194.27 65.06 193.74 61.61 C 193.39 64.42 193.26 67.25 193.16 70.07 C 192.47 70.51 191.11 71.38 190.43 71.82 C 189.72 68.33 189.39 64.79 188.95 61.27 C 188.26 64.81 188.21 68.46 189.05 71.99 L 188.11 72.00 L 183.84 72.00 C 184.55 70.91 185.25 69.81 185.93 68.70 C 184.07 67.39 182.19 66.13 180.30 64.87 C 180.71 64.47 181.52 63.65 181.93 63.24 C 183.24 63.88 184.56 64.50 185.89 65.11 C 184.72 64.06 183.89 62.29 182.16 62.08 C 180.18 62.33 179.81 64.50 179.04 65.98 C 180.64 66.77 182.25 67.57 183.86 68.37 C 183.65 69.52 183.44 70.68 183.23 71.84 C 181.84 70.70 180.47 69.55 179.10 68.41 C 179.40 69.61 179.71 70.80 180.02 72.00 L 176.35 72.00 C 176.53 68.50 176.56 64.96 175.78 61.52 C 175.50 63.86 175.34 66.20 175.20 68.54 L 173.74 68.53 C 173.35 66.49 172.94 64.47 172.52 62.44 C 172.04 62.43 171.07 62.40 170.58 62.39 C 170.53 65.59 170.51 68.80 170.28 72.00 L 165.44 72.00 C 168.39 69.56 168.63 62.75 164.09 62.12 C 159.52 63.03 161.67 68.76 161.72 72.00 L 156.13 72.00 C 156.51 71.72 157.27 71.17 157.65 70.89 C 157.74 69.80 157.81 68.70 157.87 67.61 C 157.18 68.86 156.49 70.11 155.82 71.37 C 155.21 71.06 153.99 70.45 153.38 70.15 C 153.63 67.69 153.97 65.24 154.44 62.81 C 155.89 63.77 157.35 64.71 158.83 65.64 C 157.77 64.03 156.75 61.59 154.35 62.19 C 151.26 64.45 152.89 68.77 152.70 72.00 L 143.61 72.00 C 143.68 70.43 143.76 68.85 143.84 67.28 C 143.24 67.59 142.03 68.22 141.42 68.53 C 141.93 67.06 142.45 65.61 142.99 64.16 C 142.10 63.30 141.20 62.29 139.85 62.36 C 139.41 63.61 139.01 64.87 138.64 66.15 C 138.37 68.08 138.24 70.03 138.21 71.99 L 137.16 72.00 L 128.51 72.00 C 129.08 70.63 129.58 69.24 130.04 67.83 C 128.21 66.83 126.37 65.83 124.56 64.79 C 126.36 63.05 128.25 64.06 130.05 65.10 C 129.15 63.08 127.02 60.94 124.93 62.99 C 122.23 65.95 126.97 67.50 128.86 69.02 C 128.41 69.70 127.51 71.05 127.06 71.73 C 125.97 70.56 124.88 69.39 123.79 68.23 C 124.14 69.48 124.50 70.74 124.85 72.00 L 120.74 72.00 C 120.61 68.70 120.57 65.38 120.04 62.11 C 119.35 63.43 118.38 64.87 119.40 66.42 C 118.59 66.46 116.96 66.55 116.14 66.59 C 116.57 65.63 117.42 63.71 117.85 62.75 C 117.17 62.80 115.81 62.91 115.12 62.97 C 115.22 65.98 115.34 68.99 115.59 71.99 C 116.07 70.54 116.52 69.07 116.92 67.60 C 117.77 67.74 118.62 67.88 119.47 68.02 C 119.52 69.01 119.63 70.99 119.69 71.97 L 118.94 72.00 L 112.94 72.00 C 110.65 71.36 108.07 70.56 107.82 67.75 C 109.52 67.49 111.22 67.23 112.92 66.97 C 111.39 66.66 109.86 66.35 108.33 66.06 C 108.36 65.42 108.41 64.16 108.44 63.52 C 109.29 63.53 110.98 63.54 111.83 63.55 C 111.84 63.23 111.85 62.61 111.85 62.29 C 110.17 62.39 108.49 62.49 106.81 62.60 C 107.07 65.72 107.27 68.86 107.44 71.99 L 106.05 72.00 L 104.60 72.00 C 103.65 70.38 102.66 68.73 102.20 66.89 C 102.46 65.00 103.61 63.36 104.33 61.61 C 102.77 63.31 101.22 65.01 99.65 66.70 C 99.67 65.66 99.72 63.57 99.74 62.52 L 98.44 62.40 C 98.41 65.60 98.53 68.82 99.01 71.99 C 99.31 70.81 99.90 68.46 100.19 67.28 C 101.22 68.86 102.24 70.46 103.34 72.00 L 94.09 72.00 C 95.42 69.43 96.45 65.98 94.60 63.42 C 93.44 61.66 90.61 61.84 89.61 63.67 C 88.89 66.40 89.51 69.24 89.73 72.00 L 85.78 72.00 C 85.71 70.36 85.63 68.73 85.59 67.09 C 85.55 65.70 85.67 64.26 85.16 62.94 C 83.56 62.54 81.93 62.35 80.30 62.13 C 80.26 65.42 80.31 68.71 80.12 72.00 L 74.40 72.00 C 77.93 70.58 76.12 66.25 76.62 63.33 C 74.91 62.90 73.20 62.47 71.49 62.03 C 71.42 65.35 71.44 68.68 71.25 72.00 L 56.51 72.00 C 56.62 67.18 56.59 62.36 56.57 57.53 C 42.88 57.58 29.19 57.57 15.50 57.54 C 15.48 62.36 15.48 67.18 15.51 72.00 L 0.00 72.00 L 0.00 63.83 C 4.34 66.41 8.84 68.72 13.23 71.23 C 13.27 58.38 13.17 45.53 13.28 32.68 C 8.90 30.03 4.29 27.78 0.00 24.97 L 0.00 14.70 C 4.25 17.47 8.82 19.72 13.27 22.17 C 13.28 17.47 13.28 12.78 13.27 8.08 C 8.83 5.61 4.33 3.24 0.00 0.58 L 0.00 0.00 Z" />
<path fill="#7e8184" d=" M 0.00 0.58 C 4.33 3.24 8.83 5.61 13.27 8.08 C 13.28 12.78 13.28 17.47 13.27 22.17 C 8.82 19.72 4.25 17.47 0.00 14.70 L 0.00 0.58 Z" />
<path fill="#004b8d" d=" M 71.44 8.36 C 72.05 8.37 73.26 8.39 73.86 8.41 C 73.79 14.40 73.87 20.40 73.79 26.40 C 73.21 26.39 72.06 26.39 71.48 26.39 C 71.42 20.38 71.46 14.37 71.44 8.36 Z" />
<path fill="#004b8d" d=" M 78.52 8.20 C 82.54 7.60 84.79 11.16 87.36 13.53 C 90.83 17.02 94.42 20.38 97.80 23.96 C 97.75 18.80 97.78 13.64 97.75 8.48 C 98.42 8.45 99.76 8.38 100.44 8.34 C 100.42 14.35 100.44 20.35 100.42 26.36 C 99.59 26.36 97.95 26.38 97.12 26.38 C 91.60 21.45 86.53 16.04 81.14 10.97 C 80.36 16.03 81.87 21.27 80.54 26.21 L 78.58 26.70 C 78.45 20.53 78.54 14.37 78.52 8.20 Z" />
<path fill="#004b8d" d=" M 107.92 18.18 C 103.11 17.31 103.19 9.02 108.12 8.48 C 112.52 8.13 117.04 7.91 121.40 8.70 C 123.94 9.37 123.91 12.15 123.86 14.26 C 122.46 13.47 121.71 12.06 120.94 10.72 C 116.59 10.13 112.18 10.20 107.81 10.63 C 107.52 11.11 106.93 12.07 106.63 12.56 C 106.69 13.51 106.74 14.46 106.80 15.41 C 111.75 17.15 117.08 15.55 122.12 16.75 C 125.97 18.49 125.28 25.22 121.18 26.26 C 116.79 26.65 112.35 26.66 107.97 26.27 C 105.31 25.77 104.29 23.06 104.24 20.64 C 104.79 20.62 105.88 20.57 106.42 20.54 C 106.82 21.83 106.85 23.43 108.09 24.26 C 112.06 24.60 116.07 24.53 120.05 24.33 C 122.73 24.19 123.32 19.93 121.23 18.62 C 116.81 18.04 112.33 18.80 107.92 18.18 Z" />
<path fill="#004b8d" d=" M 153.67 8.40 C 159.50 8.60 165.41 7.91 171.19 8.79 C 174.53 9.73 173.24 13.69 173.57 16.26 C 173.07 17.00 172.59 17.74 172.11 18.48 C 173.92 20.74 173.40 23.66 173.46 26.35 L 171.40 26.44 C 171.32 24.09 171.12 21.73 170.49 19.45 C 165.78 19.13 161.05 19.28 156.34 19.23 C 156.34 21.61 156.35 23.98 156.35 26.36 C 155.69 26.36 154.36 26.37 153.70 26.37 C 153.67 20.38 153.70 14.39 153.67 8.40 Z" />
<path fill="#004b8d" d=" M 185.57 9.51 C 186.16 8.12 187.84 8.50 189.03 8.21 C 192.61 14.33 196.27 20.39 199.65 26.62 C 196.89 26.96 195.76 24.52 194.52 22.59 C 189.96 22.53 185.40 22.58 180.84 22.55 C 179.96 23.85 179.07 25.15 178.19 26.44 C 177.63 26.43 176.51 26.39 175.96 26.37 C 178.96 20.64 182.29 15.08 185.57 9.51 Z" />
<path fill="#004b8d" d=" M 202.17 8.42 C 203.34 8.40 204.50 8.39 205.67 8.39 C 210.90 13.69 216.41 18.71 221.54 24.12 C 221.57 18.84 221.52 13.57 221.56 8.29 C 222.44 8.37 223.32 8.45 224.21 8.53 C 224.05 14.49 224.50 20.47 223.84 26.41 C 223.04 26.41 221.43 26.41 220.63 26.40 C 215.11 21.27 209.93 15.80 204.46 10.62 C 204.42 15.87 204.48 21.13 204.42 26.39 C 203.88 26.39 202.80 26.40 202.26 26.40 C 202.16 20.41 202.27 14.41 202.17 8.42 Z" />
<path fill="#004b8d" d=" M 228.64 10.93 C 229.43 9.73 230.48 8.42 232.07 8.42 C 235.71 8.06 239.38 8.24 243.03 8.24 C 244.56 8.34 246.37 8.22 247.54 9.44 C 249.07 10.57 248.50 12.71 248.84 14.35 C 248.37 14.33 247.42 14.30 246.95 14.28 C 246.43 12.93 246.64 10.58 244.66 10.50 C 241.09 10.12 237.48 10.25 233.90 10.39 C 232.63 10.32 231.56 11.05 230.72 11.92 C 230.27 14.95 230.38 18.04 230.51 21.09 C 230.32 22.93 231.95 24.68 233.83 24.40 C 238.11 24.33 242.57 25.06 246.69 23.58 C 246.70 22.78 246.71 21.18 246.71 20.38 C 247.64 20.35 248.57 20.32 249.51 20.30 C 249.33 22.66 248.78 25.62 246.04 26.23 C 241.69 26.74 237.27 26.52 232.90 26.41 C 230.85 26.45 229.08 24.82 228.46 22.97 C 228.39 18.96 228.43 14.94 228.64 10.93 Z" />
<path fill="#004b8d" d=" M 253.18 8.38 C 258.87 8.40 264.57 8.40 270.26 8.39 C 270.27 8.91 270.30 9.97 270.32 10.50 C 265.30 10.54 260.28 10.50 255.26 10.52 C 255.30 12.40 255.35 14.28 255.42 16.16 C 260.12 16.14 264.83 16.27 269.52 15.85 C 269.56 16.45 269.63 17.67 269.67 18.28 C 264.87 18.28 260.08 18.27 255.28 18.27 C 255.30 20.31 255.33 22.34 255.37 24.38 C 260.38 24.35 265.38 24.36 270.39 24.36 L 270.35 26.36 C 264.65 26.37 258.95 26.34 253.25 26.39 C 253.13 20.39 253.21 14.38 253.18 8.38 Z" />
<path fill="#004b8d" d=" M 15.48 22.75 C 15.49 18.02 15.49 13.29 15.48 8.56 C 29.18 8.58 42.88 8.60 56.59 8.56 C 56.58 13.28 56.58 18.01 56.59 22.74 C 42.89 22.72 29.18 22.72 15.48 22.75 Z" />
<path fill="#004b8d" d=" M 128.68 8.43 C 129.33 8.41 130.63 8.37 131.27 8.36 C 131.40 13.34 130.96 18.36 131.47 23.33 C 133.43 25.27 136.50 24.15 138.97 24.47 C 141.46 24.19 144.38 25.14 146.54 23.56 C 147.15 18.55 146.64 13.47 146.78 8.42 C 147.42 8.42 148.68 8.42 149.31 8.42 C 149.22 12.98 149.39 17.54 149.26 22.10 C 149.39 24.37 147.36 26.42 145.10 26.39 C 139.93 26.44 134.56 27.15 129.58 25.39 C 127.92 19.89 128.99 14.07 128.68 8.43 Z" />
<path fill="#ffffff" d=" M 156.31 10.51 C 161.36 10.92 166.78 9.46 171.52 11.72 C 171.19 13.65 171.68 16.79 169.04 17.19 C 164.84 17.59 160.60 17.25 156.38 17.38 C 156.36 15.09 156.34 12.80 156.31 10.51 Z" />
<path fill="#ffffff" d=" M 181.94 20.50 C 183.76 17.13 185.57 13.75 187.86 10.68 C 189.68 14.02 191.62 17.30 193.68 20.50 C 189.76 20.52 185.85 20.52 181.94 20.50 Z" />
<path fill="#7e8184" d=" M 228.46 22.97 C 227.47 19.02 227.52 14.85 228.64 10.93 C 228.43 14.94 228.39 18.96 228.46 22.97 Z" />
<path fill="#7e8184" d=" M 0.00 24.97 C 4.29 27.78 8.90 30.03 13.28 32.68 C 13.17 45.53 13.27 58.38 13.23 71.23 C 8.84 68.72 4.34 66.41 0.00 63.83 L 0.00 24.97 Z" />
<path fill="#7e8184" d=" M 137.93 31.52 C 142.59 30.68 147.41 30.53 152.07 31.50 C 147.35 31.60 142.64 31.58 137.93 31.52 Z" />
<path fill="#004b8d" d=" M 71.34 31.43 C 77.00 31.43 82.66 31.37 88.32 31.48 L 88.28 33.47 C 83.40 33.54 78.52 33.50 73.65 33.52 C 73.66 35.42 73.67 37.33 73.69 39.23 C 78.53 39.27 83.37 39.06 88.20 39.45 L 87.07 41.10 C 82.61 41.53 78.12 41.17 73.65 41.28 C 73.66 43.31 73.66 45.35 73.67 47.39 C 78.59 47.40 83.52 47.36 88.44 47.43 C 88.40 47.90 88.31 48.84 88.27 49.30 C 82.63 49.34 77.00 49.33 71.36 49.31 C 71.37 43.35 71.38 37.39 71.34 31.43 Z" />
<path fill="#004b8d" d=" M 90.79 31.53 C 91.94 31.49 93.08 31.45 94.23 31.43 C 96.44 33.91 98.78 36.28 101.11 38.65 C 104.55 36.10 106.73 30.69 111.68 31.28 C 108.91 34.25 105.95 37.03 103.12 39.94 C 106.36 43.05 109.50 46.28 112.71 49.43 C 107.25 49.92 104.90 43.89 101.06 41.08 C 97.36 43.99 95.07 49.87 89.64 49.48 C 92.67 46.20 95.88 43.11 99.03 39.95 C 96.32 37.11 93.43 34.44 90.79 31.53 Z" />
<path fill="#004b8d" d=" M 115.17 31.43 C 120.60 31.52 126.04 31.21 131.46 31.54 C 131.74 31.99 132.31 32.89 132.60 33.34 C 127.49 33.66 122.38 33.46 117.27 33.51 C 117.30 35.42 117.34 37.33 117.39 39.24 C 122.05 39.22 126.70 39.23 131.35 39.23 C 131.33 39.75 131.29 40.77 131.27 41.29 C 126.61 41.27 121.96 41.28 117.30 41.27 C 117.31 43.31 117.31 45.36 117.33 47.40 C 122.06 47.51 126.81 47.15 131.53 47.53 C 131.82 47.95 132.39 48.77 132.67 49.19 C 126.84 49.45 121.01 49.28 115.18 49.30 C 115.21 43.34 115.21 37.39 115.17 31.43 Z" />
<path fill="#004b8d" d=" M 158.64 31.35 C 159.50 31.42 160.37 31.49 161.25 31.55 C 161.30 36.81 160.95 42.09 161.56 47.33 C 165.68 47.57 169.82 47.68 173.94 47.47 C 175.20 47.52 176.67 46.40 176.42 45.04 C 176.57 40.50 176.40 35.96 176.44 31.42 C 176.99 31.41 178.08 31.41 178.63 31.41 C 178.57 37.00 178.78 42.60 178.42 48.19 C 173.87 50.15 168.83 49.44 164.01 49.46 C 162.00 49.57 159.82 48.84 158.84 46.96 C 158.35 41.78 158.76 36.55 158.64 31.35 Z" />
<path fill="#004b8d" d=" M 181.28 31.40 C 187.75 31.45 194.22 31.42 200.70 31.42 C 200.69 31.95 200.68 33.00 200.67 33.53 C 197.84 33.52 195.00 33.51 192.17 33.52 C 192.24 38.79 192.21 44.05 192.22 49.31 C 191.57 49.30 190.28 49.30 189.63 49.29 C 189.63 44.03 189.62 38.76 189.66 33.50 C 186.82 33.51 183.97 33.52 181.13 33.49 C 181.17 32.97 181.24 31.92 181.28 31.40 Z" />
<path fill="#004b8d" d=" M 203.27 31.43 C 203.83 31.43 204.96 31.42 205.52 31.41 C 205.49 37.38 205.51 43.35 205.51 49.32 C 204.95 49.32 203.84 49.31 203.28 49.31 C 203.29 43.35 203.30 37.39 203.27 31.43 Z" />
<path fill="#004b8d" d=" M 208.07 31.47 C 208.72 31.46 210.00 31.43 210.65 31.42 C 213.49 36.63 216.11 41.96 219.02 47.15 C 221.52 41.84 224.55 36.81 227.04 31.50 C 228.01 31.50 228.98 31.50 229.95 31.51 C 226.44 37.29 223.90 43.65 220.11 49.26 C 217.37 50.37 216.50 47.38 215.42 45.56 C 213.10 40.80 210.43 36.22 208.07 31.47 Z" />
<path fill="#004b8d" d=" M 232.35 31.42 C 238.00 31.43 243.65 31.39 249.30 31.45 L 249.26 33.49 C 244.36 33.53 239.45 33.50 234.55 33.52 C 234.56 35.42 234.58 37.33 234.61 39.24 C 239.11 39.29 243.62 39.07 248.11 39.32 C 248.29 39.80 248.66 40.76 248.84 41.24 C 244.08 41.32 239.32 41.26 234.56 41.27 C 234.57 43.31 234.57 45.35 234.58 47.40 C 239.50 47.40 244.41 47.39 249.33 47.40 C 249.32 47.87 249.30 48.83 249.29 49.31 C 243.64 49.33 238.00 49.33 232.36 49.31 C 232.35 43.35 232.36 37.38 232.35 31.42 Z" />
<path fill="#004b8d" d=" M 252.58 32.73 C 256.06 30.71 260.18 31.36 264.02 31.27 C 266.22 31.18 268.36 31.68 270.37 32.55 C 270.72 33.93 271.06 35.31 271.40 36.70 C 269.26 37.04 268.72 35.16 267.98 33.66 C 263.56 33.24 259.11 33.26 254.70 33.71 C 254.49 35.28 254.33 36.85 254.20 38.43 C 259.05 40.17 264.28 38.64 269.21 39.74 C 272.81 41.56 272.48 48.47 268.20 49.24 C 263.03 49.55 257.56 50.22 252.64 48.21 C 251.88 46.21 250.93 43.79 253.87 43.19 C 254.15 44.52 254.49 45.83 254.89 47.13 C 258.82 47.88 262.88 47.57 266.86 47.43 C 269.85 47.62 270.63 42.03 267.53 41.63 C 262.60 41.12 257.44 42.27 252.73 40.25 C 251.63 37.82 251.61 35.21 252.58 32.73 Z" />
<path fill="#004b8d" d=" M 134.79 36.04 C 135.00 34.16 136.10 32.22 137.93 31.52 C 142.64 31.58 147.35 31.60 152.07 31.50 C 154.76 32.18 155.00 35.16 154.88 37.46 C 154.40 37.39 153.43 37.25 152.95 37.19 C 152.76 36.00 152.56 34.83 152.36 33.65 C 148.04 33.33 143.68 33.19 139.35 33.51 C 138.09 33.55 137.23 34.88 137.27 36.07 C 137.12 39.43 136.86 42.88 137.54 46.20 C 137.87 46.48 138.52 47.05 138.85 47.33 C 143.35 47.80 147.90 47.52 152.42 47.36 C 152.62 46.05 152.81 44.75 152.99 43.44 C 153.65 43.41 154.96 43.37 155.62 43.35 C 155.49 45.75 154.95 48.66 152.19 49.27 C 146.74 49.48 140.95 50.32 135.77 48.20 C 134.37 44.31 134.40 40.11 134.79 36.04 Z" />
<path fill="#004b8d" d=" M 15.46 33.26 C 29.18 33.27 42.89 33.27 56.61 33.26 C 56.57 37.96 56.59 42.67 56.58 47.37 C 42.88 47.33 29.18 47.33 15.49 47.37 C 15.48 42.66 15.50 37.96 15.46 33.26 Z" />
<path fill="#7e8184" d=" M 70.28 56.51 C 74.82 55.77 79.44 56.15 84.02 56.11 C 107.01 56.06 130.01 56.08 153.01 56.10 C 169.32 55.47 185.66 55.47 201.97 56.11 C 220.97 56.04 239.97 56.11 258.96 56.08 C 263.13 56.09 267.33 55.86 271.46 56.55 C 239.99 56.89 208.51 56.62 177.04 56.61 C 141.46 56.60 105.86 56.94 70.28 56.51 Z" />
<path fill="#004b8d" d=" M 15.50 57.54 C 29.19 57.57 42.88 57.58 56.57 57.53 C 56.59 62.36 56.62 67.18 56.51 72.00 L 15.51 72.00 C 15.48 67.18 15.48 62.36 15.50 57.54 Z" />
<path fill="#7e8184" d=" M 71.49 62.03 C 73.20 62.47 74.91 62.90 76.62 63.33 C 76.12 66.25 77.93 70.58 74.40 72.00 L 71.25 72.00 C 71.44 68.68 71.42 65.35 71.49 62.03 Z" />
<path fill="#7e8184" d=" M 80.30 62.13 C 81.93 62.35 83.56 62.54 85.16 62.94 C 85.67 64.26 85.55 65.70 85.59 67.09 C 85.63 68.73 85.71 70.36 85.78 72.00 L 84.58 72.00 C 84.96 69.67 84.21 67.65 81.77 66.94 C 81.61 68.62 81.47 70.31 81.34 72.00 L 80.12 72.00 C 80.31 68.71 80.26 65.42 80.30 62.13 Z" />
<path fill="#7e8184" d=" M 89.61 63.67 C 90.61 61.84 93.44 61.66 94.60 63.42 C 96.45 65.98 95.42 69.43 94.09 72.00 L 89.73 72.00 C 89.51 69.24 88.89 66.40 89.61 63.67 Z" />
<path fill="#7e8184" d=" M 99.65 66.70 C 101.22 65.01 102.77 63.31 104.33 61.61 C 103.61 63.36 102.46 65.00 102.20 66.89 C 102.66 68.73 103.65 70.38 104.60 72.00 L 103.34 72.00 C 102.24 70.46 101.22 68.86 100.19 67.28 C 99.90 68.46 99.31 70.81 99.01 71.99 C 98.53 68.82 98.41 65.60 98.44 62.40 L 99.74 62.52 C 99.72 63.57 99.67 65.66 99.65 66.70 Z" />
<path fill="#7e8184" d=" M 106.81 62.60 C 108.49 62.49 110.17 62.39 111.85 62.29 C 111.85 62.61 111.84 63.23 111.83 63.55 C 110.98 63.54 109.29 63.53 108.44 63.52 C 108.41 64.16 108.36 65.42 108.33 66.06 C 109.86 66.35 111.39 66.66 112.92 66.97 C 111.22 67.23 109.52 67.49 107.82 67.75 C 108.07 70.56 110.65 71.36 112.94 72.00 L 106.05 72.00 L 107.44 71.99 C 107.27 68.86 107.07 65.72 106.81 62.60 Z" />
<path fill="#7e8184" d=" M 124.93 62.99 C 127.02 60.94 129.15 63.08 130.05 65.10 C 128.25 64.06 126.36 63.05 124.56 64.79 C 126.37 65.83 128.21 66.83 130.04 67.83 C 129.58 69.24 129.08 70.63 128.51 72.00 L 124.85 72.00 C 124.50 70.74 124.14 69.48 123.79 68.23 C 124.88 69.39 125.97 70.56 127.06 71.73 C 127.51 71.05 128.41 69.70 128.86 69.02 C 126.97 67.50 122.23 65.95 124.93 62.99 Z" />
<path fill="#7e8184" d=" M 139.85 62.36 C 141.20 62.29 142.10 63.30 142.99 64.16 C 142.45 65.61 141.93 67.06 141.42 68.53 C 142.03 68.22 143.24 67.59 143.84 67.28 C 143.76 68.85 143.68 70.43 143.61 72.00 L 137.16 72.00 L 138.21 71.99 C 138.24 70.03 138.37 68.08 138.64 66.15 C 139.01 64.87 139.41 63.61 139.85 62.36 Z" />
<path fill="#7e8184" d=" M 154.35 62.19 C 156.75 61.59 157.77 64.03 158.83 65.64 C 157.35 64.71 155.89 63.77 154.44 62.81 C 153.97 65.24 153.63 67.69 153.38 70.15 C 153.99 70.45 155.21 71.06 155.82 71.37 C 156.49 70.11 157.18 68.86 157.87 67.61 C 157.81 68.70 157.74 69.80 157.65 70.89 C 157.27 71.17 156.51 71.72 156.13 72.00 L 152.70 72.00 C 152.89 68.77 151.26 64.45 154.35 62.19 Z" />
<path fill="#7e8184" d=" M 161.72 72.00 C 161.67 68.76 159.52 63.03 164.09 62.12 C 168.63 62.75 168.39 69.56 165.44 72.00 L 161.72 72.00 Z" />
<path fill="#7e8184" d=" M 170.58 62.39 C 171.07 62.40 172.04 62.43 172.52 62.44 C 172.94 64.47 173.35 66.49 173.74 68.53 L 175.20 68.54 C 175.34 66.20 175.50 63.86 175.78 61.52 C 176.56 64.96 176.53 68.50 176.35 72.00 L 173.17 72.00 C 174.31 70.35 173.23 68.37 172.03 67.11 C 171.68 68.71 171.43 70.41 171.93 72.00 L 170.28 72.00 C 170.51 68.80 170.53 65.59 170.58 62.39 Z" />
<path fill="#7e8184" d=" M 179.04 65.98 C 179.81 64.50 180.18 62.33 182.16 62.08 C 183.89 62.29 184.72 64.06 185.89 65.11 C 184.56 64.50 183.24 63.88 181.93 63.24 C 181.52 63.65 180.71 64.47 180.30 64.87 C 182.19 66.13 184.07 67.39 185.93 68.70 C 185.25 69.81 184.55 70.91 183.84 72.00 L 180.02 72.00 C 179.71 70.80 179.40 69.61 179.10 68.41 C 180.47 69.55 181.84 70.70 183.23 71.84 C 183.44 70.68 183.65 69.52 183.86 68.37 C 182.25 67.57 180.64 66.77 179.04 65.98 Z" />
<path fill="#7e8184" d=" M 189.05 71.99 C 188.21 68.46 188.26 64.81 188.95 61.27 C 189.39 64.79 189.72 68.33 190.43 71.82 C 191.11 71.38 192.47 70.51 193.16 70.07 C 193.26 67.25 193.39 64.42 193.74 61.61 C 194.27 65.06 194.99 68.86 193.01 72.00 L 188.11 72.00 L 189.05 71.99 Z" />
<path fill="#7e8184" d=" M 198.02 71.99 C 197.68 68.52 197.58 64.99 198.30 61.56 C 198.69 64.46 198.81 67.39 198.89 70.31 C 200.50 70.89 202.10 71.47 203.72 72.00 L 197.19 72.00 L 198.02 71.99 Z" />
<path fill="#7e8184" d=" M 203.02 62.62 C 205.61 62.54 208.20 62.54 210.79 62.62 C 209.98 62.93 208.37 63.56 207.56 63.88 C 207.54 66.58 207.52 69.29 207.48 72.00 L 206.30 72.00 C 206.34 69.30 206.37 66.59 206.40 63.89 C 205.56 63.57 203.87 62.94 203.02 62.62 Z" />
<path fill="#7e8184" d=" M 214.32 61.68 C 216.04 64.92 217.15 68.43 217.94 72.00 L 215.74 72.00 L 217.52 71.62 C 216.36 70.63 215.19 69.70 214.02 68.73 C 213.31 69.55 211.89 71.18 211.19 71.99 C 212.06 68.50 213.08 65.06 214.32 61.68 Z" />
<path fill="#7e8184" d=" M 220.57 62.41 C 221.01 62.42 221.90 62.45 222.34 62.46 C 223.30 64.93 224.23 67.42 225.15 69.92 C 225.30 67.01 225.41 64.09 225.93 61.22 C 226.56 64.78 226.51 68.40 226.40 72.00 L 224.52 72.00 C 223.81 69.29 222.90 66.63 221.95 63.99 C 221.79 66.66 221.68 69.33 221.58 72.00 L 220.32 72.00 C 220.55 68.81 220.55 65.61 220.57 62.41 Z" />
<path fill="#7e8184" d=" M 228.22 62.61 C 230.78 62.55 233.35 62.55 235.92 62.60 C 235.12 62.93 233.50 63.57 232.70 63.89 C 232.67 66.59 232.64 69.30 232.58 72.00 L 231.32 72.00 C 231.48 69.32 231.50 66.63 231.54 63.94 C 230.43 63.50 229.32 63.06 228.22 62.61 Z" />
<path fill="#7e8184" d=" M 237.15 65.74 C 237.89 64.35 238.29 62.38 240.12 62.08 C 241.89 62.27 242.75 64.07 243.94 65.15 C 242.55 64.51 241.18 63.86 239.81 63.19 C 239.49 63.67 238.86 64.62 238.54 65.10 C 240.37 66.29 242.20 67.49 244.01 68.73 C 243.30 69.83 242.58 70.92 241.84 72.00 L 237.98 72.00 C 237.71 70.82 237.44 69.64 237.17 68.46 C 238.63 69.64 240.08 70.82 241.58 71.96 C 242.74 68.46 239.51 67.21 237.15 65.74 Z" />
<path fill="#7e8184" d=" M 251.17 72.00 C 251.37 68.40 251.35 64.78 251.98 61.22 C 252.59 64.78 252.60 68.40 252.53 72.00 L 251.17 72.00 Z" />
<path fill="#7e8184" d=" M 256.37 62.27 C 256.72 62.35 257.41 62.53 257.76 62.61 C 258.09 63.87 258.75 64.60 259.75 64.80 C 260.11 64.22 260.84 63.05 261.20 62.46 C 261.47 62.53 262.01 62.68 262.28 62.75 C 262.24 65.84 262.21 68.92 262.16 72.00 L 260.15 72.00 C 260.31 70.19 260.38 68.38 260.23 66.57 C 259.74 66.52 258.75 66.41 258.25 66.36 C 258.03 65.92 257.58 65.04 257.35 64.60 C 257.47 67.08 257.51 69.61 256.71 71.99 C 256.24 68.77 256.28 65.51 256.37 62.27 Z" />
<path fill="#7e8184" d=" M 265.78 63.82 C 266.57 62.09 268.68 62.52 270.21 62.17 C 270.46 63.08 270.97 64.90 271.22 65.82 C 270.00 64.76 268.78 63.70 267.56 62.66 C 266.94 65.08 266.54 67.56 266.36 70.05 C 266.90 70.39 267.98 71.06 268.52 71.40 C 269.45 70.11 270.39 68.83 271.34 67.56 C 270.92 69.04 270.51 70.53 270.03 72.00 L 265.77 72.00 C 265.60 69.31 264.70 66.41 265.78 63.82 Z" />
<path fill="#7e8184" d=" M 115.12 62.97 C 115.81 62.91 117.17 62.80 117.85 62.75 C 117.42 63.71 116.57 65.63 116.14 66.59 C 116.96 66.55 118.59 66.46 119.40 66.42 C 118.38 64.87 119.35 63.43 120.04 62.11 C 120.57 65.38 120.61 68.70 120.74 72.00 L 118.94 72.00 L 119.69 71.97 C 119.63 70.99 119.52 69.01 119.47 68.02 C 118.62 67.88 117.77 67.74 116.92 67.60 C 116.52 69.07 116.07 70.54 115.59 71.99 C 115.34 68.99 115.22 65.98 115.12 62.97 Z" />
<path fill="#ffffff" d=" M 73.12 63.96 C 74.79 63.56 75.33 64.15 74.75 65.72 C 73.06 66.12 72.52 65.53 73.12 63.96 Z" />
<path fill="#ffffff" d=" M 82.15 64.42 C 83.85 63.96 84.39 64.51 83.78 66.08 C 82.08 66.55 81.54 66.00 82.15 64.42 Z" />
<path fill="#ffffff" d=" M 90.56 70.26 C 90.91 67.82 89.15 62.85 93.10 63.34 C 95.00 65.83 93.94 68.91 93.36 71.65 C 92.66 71.31 91.26 70.61 90.56 70.26 Z" />
<path fill="#ffffff" d=" M 140.56 64.50 C 141.08 65.08 141.08 65.08 140.56 64.50 Z" />
<path fill="#ffffff" d=" M 162.68 63.26 C 167.67 63.10 166.90 69.72 163.95 71.99 C 162.02 69.44 162.43 66.23 162.68 63.26 Z" />
<path fill="#ffffff" d=" M 214.10 66.37 C 217.47 66.43 212.62 69.39 214.10 66.37 Z" />
<path fill="#ffffff" d=" M 221.95 63.99 C 222.90 66.63 223.81 69.29 224.52 72.00 L 221.58 72.00 C 221.68 69.33 221.79 66.66 221.95 63.99 Z" />
<path fill="#ffffff" d=" M 72.49 67.47 C 73.60 67.49 74.71 67.52 75.83 67.56 C 76.04 69.76 74.71 70.84 72.72 71.27 C 72.66 70.32 72.55 68.42 72.49 67.47 Z" />
<path fill="#ffffff" d=" M 172.03 67.11 C 173.23 68.37 174.31 70.35 173.17 72.00 L 171.93 72.00 C 171.43 70.41 171.68 68.71 172.03 67.11 Z" />
<path fill="#ffffff" d=" M 81.77 66.94 C 84.21 67.65 84.96 69.67 84.58 72.00 L 81.34 72.00 C 81.47 70.31 81.61 68.62 81.77 66.94 Z" />
<path fill="#ffffff" d=" M 139.41 68.01 C 141.07 66.68 142.87 70.69 140.96 71.33 C 139.44 71.30 138.62 69.21 139.41 68.01 Z" />
</svg>
